<svg width="18" height="18" viewBox="0 0 18 18" fill="none" xmlns="http://www.w3.org/2000/svg">
<path d="M12.2445 12.2803V12.2803ZM12.2445 12.2803L12.2445 12.2803L12.2446 12.2804L12.2446 12.2804L12.2447 12.2806L12.539 12.6819M12.2445 12.2803L12.2446 12.2801L12.245 12.2806L12.539 12.6819M12.539 12.6819C12.4858 12.7209 12.4253 12.7489 12.3611 12.7643M12.539 12.6819C12.5922 12.6428 12.6372 12.5936 12.6712 12.5371C12.7396 12.4245 12.7604 12.2893 12.7293 12.1612L12.3611 12.7643M12.3611 12.7643C12.297 12.7798 12.2304 12.7823 12.1652 12.7718C12.1001 12.7613 12.0377 12.738 11.9816 12.7031L12.3611 12.7643ZM13.0433 10.1316L13.0433 10.1317C13.0741 10.1495 13.1105 10.1548 13.1449 10.1466C13.1754 10.1393 13.2022 10.1221 13.2214 10.0978C13.2344 10.0697 13.2377 10.0379 13.2304 10.0075L13.0433 10.1316ZM13.0433 10.1316L13.0361 10.1276M13.0433 10.1316L13.0361 10.1276M13.0361 10.1276C10.4928 8.70885 7.49032 8.35763 4.68822 9.15097L4.63191 9.16691M13.0361 10.1276L4.63191 9.16691M4.63191 9.16691L4.5808 9.19543M4.63191 9.16691L4.5808 9.19543M4.5808 9.19543C4.56287 9.20543 4.54286 9.21132 4.52228 9.21261L4.5808 9.19543ZM4.55122 8.93234L4.50187 8.93644C4.48156 8.93813 4.4616 8.94438 4.44352 8.95494L4.19129 8.52322L4.44381 8.95477C4.42578 8.96532 4.41049 8.97967 4.39896 8.99667C4.38735 9.01379 4.37973 9.03327 4.37664 9.05371C4.37356 9.07411 4.37507 9.09494 4.38109 9.11474C4.3811 9.11476 4.38111 9.11479 4.38111 9.11481L4.55122 8.93234ZM4.55122 8.93234L4.5988 8.91864M4.55122 8.93234L4.5988 8.91864M4.5988 8.91864C6.02765 8.50732 7.5243 8.38569 9.0008 8.56097L9.00081 8.56097M4.5988 8.91864L9.00081 8.56097M9.00081 8.56097C10.4706 8.73542 11.891 9.20053 13.1792 9.92917M9.00081 8.56097L13.1792 9.92917M13.8187 7.56609C12.4755 6.80994 10.7602 6.40844 9.09188 6.27726C7.35023 6.14032 5.60153 6.29346 4.29631 6.68909L4.29604 6.68917C4.23335 6.70821 4.16562 6.70156 4.10779 6.67065L4.1077 6.6706C4.04989 6.63972 4.00669 6.58713 3.98764 6.52435L3.98763 6.52432C3.96858 6.46158 3.97523 6.39381 4.00614 6.33596L4.00616 6.33592C4.03702 6.27815 4.08962 6.23494 4.15238 6.2159L4.00718 5.73745M13.8187 7.56609L4.00718 5.73745M13.8187 7.56609L13.9529 7.63253C14.0085 7.66005 14.0724 7.66564 14.132 7.64817L14.1321 7.64814C14.1916 7.63069 14.2423 7.59146 14.2743 7.53829C14.3062 7.48503 14.3169 7.42174 14.3044 7.36102M13.8187 7.56609L14.3044 7.36102M4.00718 5.73745L4.15194 6.21603C5.4944 5.80996 7.31007 5.6396 9.15909 5.78967C10.999 5.93899 12.8235 6.40165 14.2191 7.22013C14.2627 7.25586 14.2929 7.30553 14.3044 7.36102M4.00718 5.73745L14.3044 7.36102M13.1792 9.92917C13.2047 9.94841 13.2229 9.97604 13.2304 10.0075L13.1792 9.92917ZM4.27764 1.93248L4.27762 1.93249C2.87985 2.86651 1.79039 4.19403 1.14701 5.74717L1.14701 5.74718C0.503675 7.30037 0.335348 9.00944 0.663346 10.6583C0.991291 12.3071 1.80083 13.8217 2.98958 15.0104L2.98959 15.0104C4.17834 16.1991 5.69292 17.0087 7.34175 17.3367C8.99058 17.6646 10.6996 17.4963 12.2528 16.853C13.806 16.2096 15.1335 15.1202 16.0675 13.7223C17.0015 12.3245 17.5 10.6811 17.5 9.00001C17.5 6.74565 16.6045 4.58366 15.0104 2.98961C13.4163 1.39552 11.2544 0.5 9.00003 0.5C7.31886 0.5 5.67547 0.998509 4.27764 1.93248ZM4.41155 9.16803L4.41144 9.1679L4.52227 9.21261C4.5016 9.21391 4.48096 9.21056 4.46179 9.20284C4.44258 9.19509 4.42545 9.1832 4.41155 9.16803Z" fill="#1ED760" stroke="black"/>
</svg>
